<?xml version="1.0" encoding="utf-8"?>
<!-- Generator: Adobe Illustrator 22.0.1, SVG Export Plug-In . SVG Version: 6.00 Build 0)  -->
<svg version="1.1" id="TOI" xmlns="http://www.w3.org/2000/svg" xmlns:xlink="http://www.w3.org/1999/xlink" x="0px" y="0px"
	 viewBox="0 0 209 29.6" style="enable-background:new 0 0 209 29.6;" xml:space="preserve">
<style type="text/css">
	.st0{fill:#606060;}
	.st1{fill:#F16800;}
</style>
<g>
	<g>
		<path class="st0" d="M103.3,2.2h-3.6V0.6h9.2v1.6h-3.6v9.4h-2V2.2z"/>
		<path class="st0" d="M110.3,0.6h2v11h-2V0.6z"/>
		<path class="st0" d="M117.2,2.2h-3.6V0.6h9.2v1.6h-3.6v9.4h-2V2.2z"/>
		<path class="st0" d="M130.2,9h-5.4l-1.1,2.6h-2l5-11h1.6l5,11h-2L130.2,9z M129.5,7.4l-2-4.7l-2,4.7H129.5z"/>
		<path class="st0" d="M143.7,0.6v11h-1.5l-5.9-7.7v7.7h-1.8v-11h1.5l5.9,7.7V0.6H143.7z"/>
		<path class="st0" d="M147.5,11.4c-0.7-0.2-1.4-0.6-1.9-1l0.7-1.5c0.5,0.4,1.1,0.7,1.7,0.9c0.6,0.2,1.2,0.3,1.9,0.3
			c0.8,0,1.4-0.1,1.8-0.4c0.4-0.3,0.6-0.6,0.6-1.1c0-0.4-0.2-0.7-0.6-1c-0.4-0.2-1-0.4-1.9-0.6c-1.4-0.3-2.4-0.7-3-1.2
			s-0.9-1.2-0.9-2.1c0-0.6,0.2-1.2,0.5-1.7c0.4-0.5,0.8-0.9,1.5-1.2c0.6-0.3,1.4-0.4,2.2-0.4s1.5,0.1,2.2,0.3c0.7,0.2,1.3,0.6,1.7,1
			l-0.7,1.5c-1-0.8-2.1-1.2-3.2-1.2c-0.7,0-1.3,0.1-1.7,0.4s-0.6,0.7-0.6,1.2c0,0.4,0.2,0.8,0.5,1c0.4,0.2,1,0.4,1.9,0.6
			s1.7,0.5,2.2,0.7c0.6,0.3,1,0.6,1.3,1s0.5,0.9,0.5,1.5c0,0.7-0.2,1.2-0.5,1.7c-0.4,0.5-0.9,0.9-1.5,1.1c-0.7,0.3-1.4,0.4-2.3,0.4
			C149,11.7,148.2,11.6,147.5,11.4z"/>
		<path class="st0" d="M162.4,11c-0.8-0.5-1.4-1.1-1.8-2c-0.4-0.9-0.6-1.9-0.6-3s0.2-2.1,0.6-3c0.4-0.9,1-1.5,1.8-2s1.7-0.7,2.8-0.7
			s2,0.2,2.8,0.7s1.4,1.1,1.8,2s0.6,1.8,0.6,3s-0.2,2.2-0.6,3c-0.4,0.9-1,1.5-1.8,2s-1.7,0.7-2.8,0.7
			C164.1,11.7,163.2,11.5,162.4,11z M167.6,9.1c0.6-0.7,0.9-1.7,0.9-3s-0.3-2.3-0.9-3c-0.6-0.7-1.4-1-2.4-1s-1.8,0.3-2.4,1
			c-0.6,0.7-0.9,1.7-0.9,3s0.3,2.3,0.9,3c0.6,0.7,1.4,1.1,2.4,1.1C166.2,10.1,167,9.8,167.6,9.1z"/>
		<path class="st0" d="M172.5,0.6h7.2v1.6h-5.2v3h4.9v1.6h-4.9v4.8h-2V0.6z"/>
		<path class="st0" d="M100.7,18.3h2v11h-2V18.3z"/>
		<path class="st0" d="M105.1,18.3h2v9.4h5.1v1.6h-7.1V18.3z"/>
		<path class="st0" d="M113.7,18.3h2v9.4h5.1v1.6h-7.1V18.3z"/>
		<path class="st0" d="M123.1,28.3c-0.8-0.8-1.2-1.9-1.2-3.4v-6.6h2V25c0,0.9,0.2,1.7,0.7,2.2c0.4,0.5,1.1,0.7,2,0.7s1.5-0.2,2-0.7
			c0.4-0.5,0.7-1.2,0.7-2.1v-6.7h2V25c0,1.5-0.4,2.6-1.2,3.4s-1.9,1.2-3.4,1.2C125,29.4,123.8,29,123.1,28.3z"/>
		<path class="st0" d="M134.7,29.1c-0.7-0.2-1.4-0.6-1.9-1l0.7-1.5c0.5,0.4,1.1,0.7,1.7,0.9c0.6,0.2,1.2,0.3,1.9,0.3
			c0.8,0,1.4-0.1,1.8-0.4c0.4-0.3,0.6-0.6,0.6-1.1c0-0.4-0.2-0.7-0.6-1c-0.4-0.2-1-0.4-1.9-0.6c-1.4-0.3-2.4-0.7-3-1.2
			s-0.9-1.2-0.9-2.1c0-0.6,0.2-1.2,0.5-1.7c0.4-0.5,0.8-0.9,1.5-1.2c0.6-0.3,1.4-0.4,2.2-0.4s1.5,0.1,2.2,0.3c0.7,0.2,1.3,0.6,1.7,1
			l-0.7,1.5c-1-0.8-2.1-1.2-3.2-1.2c-0.7,0-1.3,0.1-1.7,0.4s-0.6,0.7-0.6,1.2c0,0.4,0.2,0.8,0.5,1c0.4,0.2,1,0.4,1.9,0.6
			s1.7,0.5,2.2,0.7c0.6,0.3,1,0.6,1.3,1s0.5,0.9,0.5,1.5c0,0.7-0.2,1.2-0.5,1.7c-0.4,0.5-0.9,0.9-1.5,1.1c-0.7,0.3-1.4,0.4-2.3,0.4
			C136.3,29.4,135.5,29.3,134.7,29.1z"/>
		<path class="st0" d="M145.7,19.9h-3.6v-1.6h9.2v1.6h-3.6v9.4h-2L145.7,19.9L145.7,19.9z"/>
		<path class="st0" d="M161.7,29.3h-2.1l-1.4-3.7c-0.1-0.3-0.3-0.6-0.6-0.7s-0.6-0.2-1-0.2h-2v4.6h-2v-11h4.7c1.2,0,2.2,0.3,2.8,0.8
			s1,1.3,1,2.4c0,0.7-0.2,1.4-0.6,1.9c-0.4,0.5-0.9,0.9-1.6,1.1c0.6,0.1,1.1,0.6,1.4,1.4L161.7,29.3z M157.1,23.2
			c0.8,0,1.3-0.1,1.7-0.4s0.5-0.7,0.5-1.3c0-0.6-0.2-1-0.5-1.2c-0.4-0.3-0.9-0.4-1.7-0.4h-2.5v3.3H157.1z"/>
		<path class="st0" d="M170.7,26.7h-5.4l-1.1,2.6h-2l5-11h1.6l5,11h-2L170.7,26.7z M170.1,25.2l-2-4.7l-2,4.7H170.1z"/>
		<path class="st0" d="M176.2,19.9h-3.6v-1.6h9.2v1.6h-3.6v9.4h-2L176.2,19.9L176.2,19.9z"/>
		<path class="st0" d="M183.2,18.3h2v11h-2V18.3z"/>
		<path class="st0" d="M189.7,28.7c-0.8-0.5-1.4-1.1-1.8-2c-0.4-0.9-0.6-1.9-0.6-3s0.2-2.1,0.6-3c0.4-0.9,1-1.5,1.8-2
			s1.7-0.7,2.8-0.7s2,0.2,2.8,0.7s1.4,1.1,1.8,2s0.6,1.8,0.6,3s-0.2,2.2-0.6,3c-0.4,0.9-1,1.5-1.8,2s-1.7,0.7-2.8,0.7
			S190.5,29.2,189.7,28.7z M194.9,26.8c0.6-0.7,0.9-1.7,0.9-3s-0.3-2.3-0.9-3c-0.6-0.7-1.4-1-2.4-1s-1.8,0.3-2.4,1
			c-0.6,0.7-0.9,1.7-0.9,3s0.3,2.3,0.9,3c0.6,0.7,1.4,1.1,2.4,1.1C193.5,27.8,194.3,27.5,194.9,26.8z"/>
		<path class="st0" d="M209,18.3v11h-1.5l-5.9-7.7v7.7h-1.9v-11h1.5l5.9,7.7v-7.7H209z"/>
	</g>
	<g>
		<path class="st1" d="M7.6,8H0V0.5h23.8V8h-7.6v20.9H7.6C7.6,28.9,7.6,8,7.6,8z"/>
		<path class="st1" d="M39.9,0c8.8,0,15.5,6,15.5,14.7s-6.8,14.7-15.5,14.7s-15.5-6-15.5-14.7C24.4,6,31.2,0,39.9,0z M39.9,7.6
			c-4.1,0-6.8,3.1-6.8,7.1s2.7,7.1,6.8,7.1s6.8-3.1,6.8-7.1S44.1,7.6,39.9,7.6z"/>
		<path class="st1" d="M58.5,0.5h8.6v28.3h-8.6V0.5z"/>
	</g>
	<rect x="82.3" class="st0" width="2.3" height="29.4"/>
</g>
</svg>
